<?xml version="1.0" encoding="UTF-8"?>
<svg version="1.1" xmlns="http://www.w3.org/2000/svg" width="1024" height="1024">
<path d="M0 0 C0.87527344 0.24524414 1.75054688 0.49048828 2.65234375 0.74316406 C10.33505295 3.0241592 10.33505295 3.0241592 13.25 5.9375 C13.75170898 8.58544922 13.75170898 8.58544922 13.74609375 11.7421875 C13.74673828 12.88300781 13.74738281 14.02382813 13.74804688 15.19921875 C13.72806641 16.39160156 13.70808594 17.58398438 13.6875 18.8125 C13.69458984 19.99714844 13.70167969 21.18179687 13.70898438 22.40234375 C13.63477257 32.529401 13.63477257 32.529401 10.25 36.9375 C7.20322437 37.68364913 6.15459195 37.81106149 3.25 36.9375 C0.66310617 35.34022327 -1.73038279 33.56240593 -4.16796875 31.74609375 C-20.46691624 20.3294331 -44.82963597 19.56468364 -64.08666992 19.62182617 C-66.31543222 19.62500418 -68.54288259 19.6013276 -70.77148438 19.57617188 C-85.55037382 19.51070524 -103.15925518 21.07603393 -115.3125 30.3125 C-119.70337248 35.0411319 -121.96002895 38.56264268 -122.25 45 C-121.9708996 50.59046554 -120.26124113 53.55777025 -116.18359375 57.421875 C-111.31477348 61.23824321 -105.9334812 63.02397179 -100.08984375 64.75390625 C-99.22507919 65.01128067 -98.36031464 65.26865509 -97.46934509 65.53382874 C-84.58830165 69.25735988 -71.42057474 71.85488874 -58.30688477 74.61206055 C-2.4464034 86.40895074 -2.4464034 86.40895074 13.5234375 107.24609375 C20.90548651 118.75340543 21.78825673 132.56690831 19.0625 145.6875 C15.60755868 158.95001669 7.18551391 169.36649875 -4.61328125 176.34375 C-23.92486981 186.15586473 -44.20594166 188.08485571 -65.56323242 188.09863281 C-67.24791063 188.1032692 -68.93258781 188.10829494 -70.61726379 188.11367798 C-75.16658295 188.12671577 -79.71588742 188.13322871 -84.26522231 188.13768864 C-87.11065283 188.14063036 -89.95607942 188.14473695 -92.80150795 188.14919281 C-101.7144812 188.16283836 -110.62744537 188.17252218 -119.54042834 188.1763947 C-129.81239789 188.18088332 -140.08423491 188.19848075 -150.35616416 188.2273953 C-158.31225073 188.24901134 -166.26829997 188.25909876 -174.2244156 188.26043582 C-178.97027694 188.26148291 -183.71601318 188.26737166 -188.46184349 188.28525543 C-192.92133946 188.30173715 -197.38061618 188.30389118 -201.84013176 188.29511642 C-203.4739516 188.29434639 -205.10778325 188.2986843 -206.74157333 188.30857468 C-208.97655035 188.3213091 -211.21075224 188.31541019 -213.44572449 188.30499268 C-214.6946709 188.30645924 -215.94361731 188.3079258 -217.23041058 188.3094368 C-221.87822607 187.81827337 -225.91043063 186.55846583 -229.4921875 183.40234375 C-232.9759895 178.7052176 -233.87547404 176.60626103 -233.89717102 170.77703857 C-233.90432632 169.46193802 -233.91148163 168.14683746 -233.91885376 166.79188538 C-233.92169418 165.32577538 -233.92440589 163.85966513 -233.92700195 162.39355469 C-233.93326546 160.85621486 -233.93991216 159.31887655 -233.94691467 157.78153992 C-233.96433574 153.5975099 -233.97487962 149.41349132 -233.9831202 145.22943401 C-233.98826842 142.61588784 -233.99434426 140.00234523 -234.00063133 137.38880157 C-234.01968721 129.21317135 -234.03391704 121.03755017 -234.0422433 112.861902 C-234.05201572 103.42179163 -234.07833361 93.98191574 -234.11874419 84.541888 C-234.14889882 77.24754472 -234.16371158 69.95326867 -234.16702431 62.65886426 C-234.16937571 58.30130701 -234.1783475 53.94400014 -234.20348549 49.5865097 C-234.22675967 45.48574631 -234.23100223 41.38539826 -234.22072411 37.28458595 C-234.22022846 35.78096193 -234.22655753 34.27731751 -234.24028015 32.77375603 C-234.25799584 30.7173062 -234.25089679 28.66234748 -234.23774719 26.605896 C-234.24013555 25.4562524 -234.2425239 24.30660881 -234.24498463 23.12212753 C-233.63131702 19.17391852 -232.25192653 17.02333066 -229.75 13.9375 C-223.20863657 10.4712884 -217.09960972 10.53949965 -209.8125 10.64453125 C-208.69182129 10.64877609 -207.57114258 10.65302094 -206.41650391 10.65739441 C-202.86075126 10.67409689 -199.30557941 10.71173432 -195.75 10.75 C-193.32943531 10.76505769 -190.90886167 10.7787442 -188.48828125 10.79101562 C-182.57532492 10.8239728 -176.66270397 10.87408798 -170.75 10.9375 C-169.4705303 14.77590909 -170.29609071 15.75042172 -171.9375 19.375 C-174.7021131 25.51394449 -176.57435736 31.41057207 -178.75 37.9375 C-194.59 38.4325 -194.59 38.4325 -210.75 38.9375 C-210.75 79.1975 -210.75 119.4575 -210.75 160.9375 C-183.61613442 160.84674222 -183.61613442 160.84674222 -156.48242188 160.72851562 C-145.40683506 160.67416607 -134.3312932 160.62274754 -123.25561523 160.59106445 C-115.18687619 160.56796901 -107.11825656 160.53444403 -99.04961246 160.48879844 C-94.78398379 160.46502063 -90.51847226 160.4461914 -86.25277901 160.43988609 C-82.22340055 160.43376441 -78.19432121 160.41351537 -74.16505432 160.38322449 C-72.69995147 160.37455606 -71.23480933 160.37069788 -69.76968193 160.37249184 C-53.5460852 160.38606328 -33.40091909 159.34759502 -21.0859375 147.453125 C-16.77478729 142.56211248 -16.17712373 137.94509271 -16.42578125 131.6171875 C-16.92419775 127.49774514 -17.69886457 124.83571456 -20.75 121.9375 C-32.21196492 114.46465988 -46.01579115 111.68778749 -59.23352051 108.98779297 C-61.37685159 108.54933572 -63.5181471 108.10188313 -65.65917969 107.65234375 C-72.56266019 106.20551852 -79.47192971 104.79028718 -86.38671875 103.3984375 C-137.64921361 92.95582045 -137.64921361 92.95582045 -152.1875 72.4375 C-159.31075463 60.92760833 -160.49607529 46.89046714 -157.6875 33.8125 C-153.57040029 19.33499913 -144.83328083 10.25950365 -132.2109375 2.79296875 C-94.15890806 -17.60738564 -40.00349386 -11.25972467 0 0 Z " fill="#C78253" transform="translate(620.75,429.0625)"/>
<path d="M0 0 C1.23491452 3.70474357 0.66652237 4.29776207 -1.02612305 7.69921875 C-1.49378586 8.65030518 -1.96144867 9.6013916 -2.44328308 10.58129883 C-2.96086685 11.60634521 -3.47845062 12.6313916 -4.01171875 13.6875 C-4.79866875 15.26857544 -4.79866875 15.26857544 -5.60151672 16.8815918 C-6.71566914 19.11330392 -7.83489224 21.34249057 -8.95874023 23.56933594 C-10.67694588 26.97905571 -12.37365309 30.3988639 -14.06835938 33.8203125 C-15.15236424 35.98501725 -16.23761017 38.14910106 -17.32421875 40.3125 C-17.83168137 41.33754639 -18.33914398 42.36259277 -18.86198425 43.41870117 C-19.34540787 44.3697876 -19.82883148 45.32087402 -20.3269043 46.30078125 C-20.95764107 47.55628784 -20.95764107 47.55628784 -21.60112 48.8371582 C-24.02983651 52.59225484 -26.99812356 54.21740625 -31.18603516 55.53393555 C-32.40717514 55.92400032 -32.40717514 55.92400032 -33.65298462 56.32194519 C-34.52289032 56.59082047 -35.39279602 56.85969574 -36.2890625 57.13671875 C-37.63851456 57.56317436 -37.63851456 57.56317436 -39.01522827 57.99824524 C-40.91198589 58.59603266 -42.80993757 59.19004277 -44.70898438 59.78051758 C-47.62378552 60.68712226 -50.53476748 61.60522422 -53.4453125 62.52539062 C-55.28885094 63.10484017 -57.13259411 63.68363887 -58.9765625 64.26171875 C-59.85051666 64.53666672 -60.72447083 64.81161469 -61.62490845 65.09489441 C-62.43269745 65.34548111 -63.24048645 65.59606781 -64.07275391 65.85424805 C-64.78460846 66.07614304 -65.49646301 66.29803802 -66.22988892 66.5266571 C-68 67 -68 67 -70 67 C-69.38584371 64.22057857 -68.54697389 61.85519542 -67.2578125 59.3203125 C-66.74154297 58.29744141 -66.74154297 58.29744141 -66.21484375 57.25390625 C-65.85519531 56.55136719 -65.49554687 55.84882813 -65.125 55.125 C-64.77308594 54.43019531 -64.42117188 53.73539062 -64.05859375 53.01953125 C-63.53845703 51.99279297 -63.53845703 51.99279297 -63.0078125 50.9453125 C-62.66911133 50.27661133 -62.33041016 49.60791016 -61.98144531 48.91894531 C-61.0840805 47.1643962 -60.16425949 45.42137904 -59.2421875 43.6796875 C-57.78971639 41.03863603 -57.78971639 41.03863603 -58 38 C-57.01760425 36.98270035 -56.01498859 35.98478331 -55 35 C-53.85249057 32.9466487 -53.85249057 32.9466487 -52.87890625 30.65625 C-52.50056641 29.82222656 -52.12222656 28.98820312 -51.73242188 28.12890625 C-50.95311834 26.37775005 -50.17706859 24.62514219 -49.40429688 22.87109375 C-49.02466797 22.03707031 -48.64503906 21.20304687 -48.25390625 20.34375 C-47.74839233 19.20196289 -47.74839233 19.20196289 -47.23266602 18.03710938 C-44.97247958 14.30191515 -41.77054079 12.70730307 -37.69042969 11.46606445 C-36.84986023 11.20602127 -36.00929077 10.94597809 -35.14324951 10.67805481 C-34.24519592 10.40917953 -33.34714233 10.14030426 -32.421875 9.86328125 C-31.4953009 9.57897751 -30.56872681 9.29467377 -29.61407471 9.00175476 C-26.66163808 8.09774726 -23.70593385 7.20499791 -20.75 6.3125 C-18.74456581 5.70060953 -16.7393546 5.08798777 -14.734375 4.47460938 C-9.82546122 2.9745829 -4.91358734 1.48464237 0 0 Z " fill="#C88353" transform="translate(586,322)"/>
<path d="M0 0 C-0.28504395 0.56557617 -0.57008789 1.13115234 -0.86376953 1.71386719 C-1.99523872 3.99042014 -3.09178605 6.28045463 -4.1796875 8.578125 C-7.09954243 14.72853949 -10.044413 20.86668289 -13 27 C-13.53641113 28.11503906 -14.07282227 29.23007812 -14.62548828 30.37890625 C-16.21774747 33.67514536 -17.82529189 36.96347945 -19.4375 40.25 C-19.9329834 41.27899414 -20.4284668 42.30798828 -20.93896484 43.36816406 C-21.41156738 44.32432617 -21.88416992 45.28048828 -22.37109375 46.265625 C-22.9887561 47.53067871 -22.9887561 47.53067871 -23.61889648 48.82128906 C-26.97259107 54.11179118 -32.07667719 55.18605735 -37.78125 56.8828125 C-38.63174927 57.14254852 -39.48224854 57.40228455 -40.35852051 57.66989136 C-43.07010282 58.49587349 -45.78496677 59.31044192 -48.5 60.125 C-50.32704236 60.68026806 -52.15386795 61.23624989 -53.98046875 61.79296875 C-57.32881269 62.81038208 -60.67763147 63.82609647 -64.02929688 64.83251953 C-65.03712219 65.13538376 -65.03712219 65.13538376 -66.06530762 65.44436646 C-68.03362019 66.00965554 -70.01051525 66.51503623 -72 67 C-68.16757792 57.8129469 -63.72052414 48.91416335 -59.33154297 39.98339844 C-58.27572856 37.82483005 -57.22853527 35.66202382 -56.18994141 33.49511719 C-54.68404798 30.35581708 -53.14997485 27.23176049 -51.609375 24.109375 C-51.15181824 23.14062439 -50.69426147 22.17187378 -50.22283936 21.17376709 C-48.09746487 16.9343319 -46.848635 14.49979419 -42.69360352 12.05273438 C-41.47471436 11.70533203 -40.2558252 11.35792969 -39 11 C-37.6116241 10.51945579 -36.22522969 10.03315918 -34.84057617 9.54199219 C-33.32593894 9.03988826 -31.81000981 8.54166862 -30.29296875 8.046875 C-29.48636307 7.78239563 -28.67975739 7.51791626 -27.84870911 7.24542236 C-26.15760524 6.69246159 -24.46591957 6.14127725 -22.77368164 5.59179688 C-20.17529084 4.74602594 -17.5808426 3.88882747 -14.98632812 3.03125 C-13.33877051 2.49408927 -11.6909917 1.95760639 -10.04296875 1.421875 C-9.26592087 1.16363953 -8.48887299 0.90540405 -7.6882782 0.63934326 C-2.22872245 -1.11436123 -2.22872245 -1.11436123 0 0 Z " fill="#C88354" transform="translate(512,345)"/>
<path d="M0 0 C0.66 0.33 1.32 0.66 2 1 C0.70615009 4.31218055 -0.68715905 7.53792816 -2.22729492 10.74267578 C-2.88389351 12.10901657 -2.88389351 12.10901657 -3.55375671 13.50296021 C-5.55481866 17.62981206 -7.56991356 21.74963409 -9.59301758 25.86572266 C-10.65569901 28.03794699 -11.709757 30.21441135 -12.75512695 32.39501953 C-14.26759086 35.54751313 -15.80826936 38.68474934 -17.35546875 41.8203125 C-17.81616257 42.79533722 -18.27685638 43.77036194 -18.75151062 44.77493286 C-22.49933894 52.25078109 -22.49933894 52.25078109 -26.6706543 54.07470703 C-27.76933838 54.38005371 -28.86802246 54.68540039 -30 55 C-31.44246094 55.48726563 -31.44246094 55.48726563 -32.9140625 55.984375 C-33.80867188 56.23703125 -34.70328125 56.4896875 -35.625 56.75 C-36.97464844 57.14445312 -36.97464844 57.14445312 -38.3515625 57.546875 C-41.26930093 58.04607509 -43.18034829 57.86610462 -46 57 C-48.65613356 54.34386644 -48.97582181 52.04453751 -49.9453125 48.41796875 C-50.12005096 47.76677567 -50.29478943 47.11558258 -50.474823 46.44465637 C-50.84284495 45.06612561 -51.20743422 43.68667455 -51.56884766 42.30639648 C-52.12080265 40.20349156 -52.68650754 38.10464303 -53.25390625 36.00585938 C-53.61021037 34.66428409 -53.96570542 33.3224936 -54.3203125 31.98046875 C-54.80395264 30.15358521 -54.80395264 30.15358521 -55.29736328 28.28979492 C-56.45356055 22.87639738 -56.45356055 22.87639738 -56 20 C-53.18291263 17.47018963 -50.4721368 16.309564 -46.88012695 15.20654297 C-45.86259842 14.88966522 -44.84506989 14.57278748 -43.79670715 14.24630737 C-42.70492661 13.91494781 -41.61314606 13.58358826 -40.48828125 13.2421875 C-39.36431442 12.8936673 -38.2403476 12.54514709 -37.08232117 12.18606567 C-33.49466089 11.07482899 -29.90381353 9.97436699 -26.3125 8.875 C-22.71102253 7.7668162 -19.11026751 6.65637854 -15.51054382 5.54251099 C-13.27032102 4.8499067 -11.02897652 4.16091872 -8.78645325 3.47579956 C-7.7783812 3.16522614 -6.77030914 2.85465271 -5.73168945 2.53466797 C-4.83996536 2.26169891 -3.94824127 1.98872986 -3.02949524 1.70748901 C-1.03072843 1.17570735 -1.03072843 1.17570735 0 0 Z " fill="#C88454" transform="translate(435,368)"/>
<path d="M0 0 C3.15703307 3.17064936 3.97159826 6.77807204 5.078125 11.03125 C5.25382019 11.70418091 5.42951538 12.37711182 5.61053467 13.07043457 C5.97797551 14.48800582 6.34078482 15.90678476 6.69921875 17.32666016 C7.24908239 19.49637917 7.81879323 21.66019905 8.390625 23.82421875 C8.7459958 25.20541991 9.10020238 26.58692125 9.453125 27.96875 C9.77442383 29.22107422 10.09572266 30.47339844 10.42675781 31.76367188 C11.23705897 36.33835337 11.23705897 36.33835337 10 39 C7.79703941 40.15212307 5.83645144 40.96335267 3.5 41.75 C2.81454102 41.99314941 2.12908203 42.23629883 1.42285156 42.48681641 C-1.04378433 43.34880131 -3.52019472 44.17666192 -6 45 C-7.03705078 45.34708008 -8.07410156 45.69416016 -9.14257812 46.05175781 C-12.50780547 47.17186125 -15.87745935 48.27712209 -19.25 49.375 C-20.34505859 49.73303711 -21.44011719 50.09107422 -22.56835938 50.45996094 C-23.60283203 50.7902832 -24.63730469 51.12060547 -25.703125 51.4609375 C-27.08999512 51.90638916 -27.08999512 51.90638916 -28.50488281 52.36083984 C-31 53 -31 53 -35 53 C-33.73151778 49.74483264 -32.36281262 46.58927908 -30.81689453 43.45678711 C-30.17580246 42.15535011 -30.17580246 42.15535011 -29.52175903 40.82762146 C-29.06340668 39.90352982 -28.60505432 38.97943817 -28.1328125 38.02734375 C-27.4188179 36.58724693 -27.4188179 36.58724693 -26.69039917 35.11805725 C-25.68460937 33.09267617 -24.67759301 31.06790379 -23.66943359 29.04370117 C-22.63980567 26.97288928 -21.61376098 24.9002919 -20.59130859 22.82592773 C-19.11294872 19.82662248 -17.62412358 16.83272644 -16.1328125 13.83984375 C-15.67850861 12.91372787 -15.22420471 11.987612 -14.75613403 11.03343201 C-8.59364104 -1.24998415 -8.59364104 -1.24998415 0 0 Z " fill="#C88354" transform="translate(626,313)"/>
<path d="M0 0 C0 0.66 0 1.32 0 2 C-1.33333333 3.33333333 -2.66666667 4.66666667 -4 6 C-5.09374334 9.28123002 -5.13289909 11.70073194 -5.14476013 15.15577698 C-5.15165863 16.44437622 -5.15855713 17.73297546 -5.16566467 19.06062317 C-5.16837927 20.49166856 -5.17101643 21.9227141 -5.17358398 23.35375977 C-5.17988907 24.85832918 -5.18665482 26.36289673 -5.19384766 27.86746216 C-5.2085178 31.10864944 -5.22024224 34.3498295 -5.22979546 37.59103584 C-5.2452344 42.71241271 -5.26918168 47.83372755 -5.29469299 52.95506287 C-5.36593733 67.51842334 -5.42575969 82.08181885 -5.47680664 96.64526367 C-5.50507093 104.68748219 -5.5404273 112.72963851 -5.58346039 120.77179188 C-5.61029149 125.86675045 -5.62816009 130.96163866 -5.63949764 136.0566541 C-5.64859811 139.22089603 -5.66594709 142.38505209 -5.68567657 145.54924393 C-5.69317438 147.02065754 -5.69723447 148.49209312 -5.69767189 149.96352577 C-5.69874829 151.96611173 -5.71312049 153.96867762 -5.72825623 155.97120667 C-5.73248816 157.09374124 -5.7367201 158.21627581 -5.74108028 159.37282658 C-6 162 -6 162 -8 164 C-8.09344778 143.63340841 -8.1639814 123.26686033 -8.20724869 102.9000988 C-8.22787257 93.44341744 -8.25598985 83.98686929 -8.30175781 74.53027344 C-8.3416309 66.2877497 -8.36743408 58.04532244 -8.37635398 49.80270493 C-8.38156794 45.4383952 -8.39381893 41.07436148 -8.42292023 36.71014023 C-8.45009685 32.60121504 -8.45844051 28.49267924 -8.45243073 24.38367271 C-8.45352996 22.87681779 -8.46147073 21.36994966 -8.4768219 19.86317253 C-8.49678642 17.80225776 -8.49191752 15.74280431 -8.48101807 13.68185425 C-8.48470524 12.52961302 -8.48839241 11.37737179 -8.49219131 10.19021416 C-7.88768822 6.27203384 -6.44325065 4.08463536 -4 1 C-2 0 -2 0 0 0 Z " fill="#CE8857" transform="translate(395,442)"/>
<path d="M0 0 C0.33 0.99 0.66 1.98 1 3 C-1.07914664 3.70005949 -3.16351586 4.38462244 -5.25 5.0625 C-6.41015625 5.44535156 -7.5703125 5.82820313 -8.765625 6.22265625 C-11.80077085 6.95211763 -13.15703213 7.11889082 -16 6 C-15.01 6 -14.02 6 -13 6 C-13 5.34 -13 4.68 -13 4 C-8.71 2.68 -4.42 1.36 0 0 Z " fill="#CC8859" transform="translate(586,322)"/>
<path d="M0 0 C5.52677733 -0.19392201 9.75614911 0.2520497 15 2 C14.34 2.66 13.68 3.32 13 4 C10.27130593 3.96712417 7.7033382 3.43602229 5 3 C5 2.67 5 2.34 5 2 C3.35 1.67 1.7 1.34 0 1 C0 0.67 0 0.34 0 0 Z " fill="#CE8858" transform="translate(583,448)"/>
<path d="M0 0 C-0.66 0 -1.32 0 -2 0 C-2 0.66 -2 1.32 -2 2 C-5.67410785 3.17571451 -9.16929183 3.07366746 -13 3 C-9.54666565 -0.45333435 -4.63654999 -1.85462 0 0 Z " fill="#CF8857" transform="translate(479,399)"/>
<path d="" fill="#CA8A5D" transform="translate(0,0)"/>
<path d="" fill="#C28A60" transform="translate(0,0)"/>
<path d="" fill="#7F8080" transform="translate(0,0)"/>
<path d="" fill="#818384" transform="translate(0,0)"/>
<path d="" fill="#818382" transform="translate(0,0)"/>
<path d="" fill="#828283" transform="translate(0,0)"/>
<path d="" fill="#808081" transform="translate(0,0)"/>
<path d="" fill="#838283" transform="translate(0,0)"/>
<path d="" fill="#818081" transform="translate(0,0)"/>
<path d="" fill="#838383" transform="translate(0,0)"/>
<path d="" fill="#808082" transform="translate(0,0)"/>
<path d="" fill="#828484" transform="translate(0,0)"/>
<path d="" fill="#818284" transform="translate(0,0)"/>
<path d="" fill="#838484" transform="translate(0,0)"/>
<path d="" fill="#7A7D7C" transform="translate(0,0)"/>
<path d="" fill="#7C7D7C" transform="translate(0,0)"/>
<path d="" fill="#7F7F7F" transform="translate(0,0)"/>
<path d="" fill="#838482" transform="translate(0,0)"/>
<path d="" fill="#858583" transform="translate(0,0)"/>
<path d="" fill="#828383" transform="translate(0,0)"/>
<path d="" fill="#7E8080" transform="translate(0,0)"/>
<path d="" fill="#7F8080" transform="translate(0,0)"/>
<path d="" fill="#808181" transform="translate(0,0)"/>
<path d="" fill="#818382" transform="translate(0,0)"/>
<path d="" fill="#7B7F7D" transform="translate(0,0)"/>
<path d="" fill="#7E7F7F" transform="translate(0,0)"/>
<path d="" fill="#818282" transform="translate(0,0)"/>
<path d="" fill="#7D7E7E" transform="translate(0,0)"/>
<path d="" fill="#7D7F7E" transform="translate(0,0)"/>
<path d="" fill="#7F807F" transform="translate(0,0)"/>
<path d="" fill="#828284" transform="translate(0,0)"/>
<path d="" fill="#858583" transform="translate(0,0)"/>
<path d="" fill="#848686" transform="translate(0,0)"/>
<path d="" fill="#848485" transform="translate(0,0)"/>
<path d="" fill="#7E7E7D" transform="translate(0,0)"/>
<path d="" fill="#7F8080" transform="translate(0,0)"/>
<path d="" fill="#858684" transform="translate(0,0)"/>
<path d="" fill="#848586" transform="translate(0,0)"/>
<path d="" fill="#838585" transform="translate(0,0)"/>
<path d="" fill="#868787" transform="translate(0,0)"/>
<path d="" fill="#7D7F7E" transform="translate(0,0)"/>
<path d="" fill="#7D7F7F" transform="translate(0,0)"/>
<path d="" fill="#7F7F80" transform="translate(0,0)"/>
<path d="" fill="#808081" transform="translate(0,0)"/>
<path d="" fill="#7F8280" transform="translate(0,0)"/>
<path d="" fill="#828383" transform="translate(0,0)"/>
<path d="" fill="#868683" transform="translate(0,0)"/>
<path d="" fill="#858787" transform="translate(0,0)"/>
<path d="" fill="#838584" transform="translate(0,0)"/>
<path d="" fill="#828383" transform="translate(0,0)"/>
<path d="" fill="#7F8080" transform="translate(0,0)"/>
<path d="" fill="#7F817F" transform="translate(0,0)"/>
<path d="" fill="#818181" transform="translate(0,0)"/>
<path d="" fill="#838384" transform="translate(0,0)"/>
<path d="" fill="#848583" transform="translate(0,0)"/>
<path d="" fill="#878688" transform="translate(0,0)"/>
<path d="" fill="#858986" transform="translate(0,0)"/>
<path d="" fill="#858586" transform="translate(0,0)"/>
<path d="" fill="#818482" transform="translate(0,0)"/>
<path d="" fill="#818181" transform="translate(0,0)"/>
<path d="" fill="#878785" transform="translate(0,0)"/>
<path d="" fill="#848584" transform="translate(0,0)"/>
<path d="" fill="#878787" transform="translate(0,0)"/>
<path d="" fill="#868785" transform="translate(0,0)"/>
<path d="" fill="#868786" transform="translate(0,0)"/>
<path d="" fill="#858686" transform="translate(0,0)"/>
<path d="" fill="#818382" transform="translate(0,0)"/>
<path d="" fill="#848786" transform="translate(0,0)"/>
<path d="" fill="#898989" transform="translate(0,0)"/>
<path d="" fill="#838483" transform="translate(0,0)"/>
<path d="" fill="#858585" transform="translate(0,0)"/>
<path d="" fill="#808282" transform="translate(0,0)"/>
<path d="" fill="#848784" transform="translate(0,0)"/>
<path d="" fill="#858987" transform="translate(0,0)"/>
<path d="" fill="#848786" transform="translate(0,0)"/>
<path d="" fill="#858486" transform="translate(0,0)"/>
<path d="" fill="#818281" transform="translate(0,0)"/>
<path d="" fill="#828382" transform="translate(0,0)"/>
<path d="" fill="#8A8A88" transform="translate(0,0)"/>
<path d="" fill="#888989" transform="translate(0,0)"/>
<path d="" fill="#828382" transform="translate(0,0)"/>
<path d="" fill="#898989" transform="translate(0,0)"/>
<path d="" fill="#888888" transform="translate(0,0)"/>
<path d="" fill="#808281" transform="translate(0,0)"/>
<path d="" fill="#8A8988" transform="translate(0,0)"/>
<path d="" fill="#898A89" transform="translate(0,0)"/>
<path d="" fill="#8B8B89" transform="translate(0,0)"/>
<path d="" fill="#8A898A" transform="translate(0,0)"/>
<path d="" fill="#8C8B88" transform="translate(0,0)"/>
<path d="" fill="#8D8D88" transform="translate(0,0)"/>
<path d="" fill="#8D8B89" transform="translate(0,0)"/>
<path d="" fill="#8D8B8A" transform="translate(0,0)"/>
<path d="" fill="#8B8C8A" transform="translate(0,0)"/>
<path d="" fill="#8C8C89" transform="translate(0,0)"/>
<path d="" fill="#8B8A8A" transform="translate(0,0)"/>
<path d="" fill="#8F8C87" transform="translate(0,0)"/>
<path d="" fill="#858586" transform="translate(0,0)"/>
<path d="" fill="#858685" transform="translate(0,0)"/>
<path d="" fill="#858684" transform="translate(0,0)"/>
<path d="" fill="#8B8B8A" transform="translate(0,0)"/>
<path d="" fill="#8E8C88" transform="translate(0,0)"/>
<path d="" fill="#938C84" transform="translate(0,0)"/>
<path d="" fill="#8C8D8B" transform="translate(0,0)"/>
<path d="" fill="#8C8C8B" transform="translate(0,0)"/>
<path d="" fill="#958D82" transform="translate(0,0)"/>
<path d="" fill="#888988" transform="translate(0,0)"/>
<path d="" fill="#898A89" transform="translate(0,0)"/>
<path d="" fill="#938D87" transform="translate(0,0)"/>
<path d="" fill="#968A82" transform="translate(0,0)"/>
<path d="" fill="#8C8E8C" transform="translate(0,0)"/>
<path d="" fill="#8C8B8C" transform="translate(0,0)"/>
<path d="" fill="#8F8E8C" transform="translate(0,0)"/>
<path d="" fill="#988C80" transform="translate(0,0)"/>
<path d="" fill="#968D83" transform="translate(0,0)"/>
<path d="" fill="#8B8C8B" transform="translate(0,0)"/>
<path d="" fill="#898D8B" transform="translate(0,0)"/>
<path d="" fill="#89898B" transform="translate(0,0)"/>
<path d="" fill="#8F8E8B" transform="translate(0,0)"/>
<path d="" fill="#9D8C7C" transform="translate(0,0)"/>
<path d="" fill="#898A8B" transform="translate(0,0)"/>
<path d="" fill="#8A8B8B" transform="translate(0,0)"/>
<path d="" fill="#998E82" transform="translate(0,0)"/>
<path d="" fill="#878987" transform="translate(0,0)"/>
<path d="" fill="#898A89" transform="translate(0,0)"/>
<path d="" fill="#8C8C8C" transform="translate(0,0)"/>
<path d="" fill="#8F8F8C" transform="translate(0,0)"/>
<path d="" fill="#8F8E8D" transform="translate(0,0)"/>
<path d="" fill="#9E8D7F" transform="translate(0,0)"/>
<path d="" fill="#948F8A" transform="translate(0,0)"/>
<path d="" fill="#92908C" transform="translate(0,0)"/>
<path d="" fill="#898989" transform="translate(0,0)"/>
<path d="" fill="#898A8A" transform="translate(0,0)"/>
<path d="" fill="#8F8F8C" transform="translate(0,0)"/>
<path d="" fill="#898A8B" transform="translate(0,0)"/>
<path d="" fill="#AB8D77" transform="translate(0,0)"/>
<path d="" fill="#BB8C69" transform="translate(0,0)"/>
<path d="" fill="#8C8B8C" transform="translate(0,0)"/>
<path d="" fill="#8D8D8C" transform="translate(0,0)"/>
<path d="" fill="#97918A" transform="translate(0,0)"/>
<path d="" fill="#AB8E76" transform="translate(0,0)"/>
<path d="" fill="#96908A" transform="translate(0,0)"/>
<path d="" fill="#90918D" transform="translate(0,0)"/>
<path d="" fill="#8A8B8B" transform="translate(0,0)"/>
<path d="" fill="#91908C" transform="translate(0,0)"/>
<path d="" fill="#C48C63" transform="translate(0,0)"/>
<path d="" fill="#989188" transform="translate(0,0)"/>
<path d="" fill="#978F8A" transform="translate(0,0)"/>
<path d="" fill="#8B8C8B" transform="translate(0,0)"/>
<path d="" fill="#C88A5E" transform="translate(0,0)"/>
<path d="" fill="#C68A64" transform="translate(0,0)"/>
<path d="" fill="#8A8C8B" transform="translate(0,0)"/>
<path d="" fill="#92908C" transform="translate(0,0)"/>
<path d="" fill="#8D8D8E" transform="translate(0,0)"/>
<path d="" fill="#C18D65" transform="translate(0,0)"/>
<path d="" fill="#8B8A8A" transform="translate(0,0)"/>
<path d="" fill="#8A8B8B" transform="translate(0,0)"/>
<path d="" fill="#9A8F87" transform="translate(0,0)"/>
<path d="" fill="#C78D5E" transform="translate(0,0)"/>
<path d="" fill="#CC8B5C" transform="translate(0,0)"/>
<path d="" fill="#CB8B5C" transform="translate(0,0)"/>
<path d="" fill="#C88A5B" transform="translate(0,0)"/>
<path d="" fill="#C88B5D" transform="translate(0,0)"/>
<path d="" fill="#8B8C8A" transform="translate(0,0)"/>
<path d="" fill="#90908D" transform="translate(0,0)"/>
<path d="" fill="#8B8E8C" transform="translate(0,0)"/>
<path d="" fill="#90908D" transform="translate(0,0)"/>
<path d="" fill="#91908E" transform="translate(0,0)"/>
<path d="" fill="#97918A" transform="translate(0,0)"/>
<path d="" fill="#C98C5D" transform="translate(0,0)"/>
<path d="" fill="#99938A" transform="translate(0,0)"/>
<path d="" fill="#B98E68" transform="translate(0,0)"/>
<path d="" fill="#9A9288" transform="translate(0,0)"/>
<path d="" fill="#939190" transform="translate(0,0)"/>
<path d="" fill="#CD8C5E" transform="translate(0,0)"/>
<path d="" fill="#A08F83" transform="translate(0,0)"/>
<path d="" fill="#CC8B5C" transform="translate(0,0)"/>
<path d="" fill="#8C8C8B" transform="translate(0,0)"/>
<path d="" fill="#918F8E" transform="translate(0,0)"/>
<path d="" fill="#CA895C" transform="translate(0,0)"/>
<path d="" fill="#CA8A5D" transform="translate(0,0)"/>
<path d="" fill="#C88C5E" transform="translate(0,0)"/>
<path d="" fill="#CB8C5C" transform="translate(0,0)"/>
<path d="" fill="#8B8D8D" transform="translate(0,0)"/>
<path d="" fill="#8D8D8C" transform="translate(0,0)"/>
<path d="" fill="#C88A5C" transform="translate(0,0)"/>
<path d="" fill="#94928D" transform="translate(0,0)"/>
<path d="" fill="#8F8F8E" transform="translate(0,0)"/>
<path d="" fill="#98908A" transform="translate(0,0)"/>
<path d="" fill="#C98C5D" transform="translate(0,0)"/>
<path d="" fill="#908F8C" transform="translate(0,0)"/>
<path d="" fill="#A49181" transform="translate(0,0)"/>
<path d="" fill="#96918B" transform="translate(0,0)"/>
<path d="" fill="#C98C61" transform="translate(0,0)"/>
<path d="" fill="#CC8B5D" transform="translate(0,0)"/>
<path d="" fill="#CC8A5E" transform="translate(0,0)"/>
<path d="" fill="#C6895F" transform="translate(0,0)"/>
<path d="" fill="#CA895D" transform="translate(0,0)"/>
<path d="" fill="#CD8C5E" transform="translate(0,0)"/>
<path d="" fill="#CD8B5D" transform="translate(0,0)"/>
<path d="" fill="#8D8E8D" transform="translate(0,0)"/>
<path d="" fill="#8E8E8D" transform="translate(0,0)"/>
<path d="" fill="#90908D" transform="translate(0,0)"/>
<path d="" fill="#C78B5C" transform="translate(0,0)"/>
<path d="" fill="#8A8C8B" transform="translate(0,0)"/>
<path d="" fill="#A29284" transform="translate(0,0)"/>
<path d="" fill="#C58D63" transform="translate(0,0)"/>
<path d="" fill="#92908E" transform="translate(0,0)"/>
<path d="" fill="#8E908F" transform="translate(0,0)"/>
<path d="" fill="#C8895B" transform="translate(0,0)"/>
<path d="" fill="#888A8B" transform="translate(0,0)"/>
<path d="" fill="#AF8F75" transform="translate(0,0)"/>
<path d="" fill="#92918E" transform="translate(0,0)"/>
<path d="" fill="#CB8A5B" transform="translate(0,0)"/>
<path d="" fill="#C98C61" transform="translate(0,0)"/>
<path d="" fill="#C98B5F" transform="translate(0,0)"/>
<path d="" fill="#C98C5E" transform="translate(0,0)"/>
<path d="" fill="#9C9187" transform="translate(0,0)"/>
<path d="" fill="#92918C" transform="translate(0,0)"/>
<path d="" fill="#AC8F7A" transform="translate(0,0)"/>
<path d="" fill="#C7895D" transform="translate(0,0)"/>
<path d="" fill="#CA8C5C" transform="translate(0,0)"/>
<path d="" fill="#8F8F8E" transform="translate(0,0)"/>
<path d="" fill="#98918B" transform="translate(0,0)"/>
<path d="" fill="#8C8E8C" transform="translate(0,0)"/>
<path d="" fill="#94908C" transform="translate(0,0)"/>
<path d="" fill="#C5885F" transform="translate(0,0)"/>
<path d="" fill="#C4895E" transform="translate(0,0)"/>
<path d="" fill="#94918C" transform="translate(0,0)"/>
<path d="" fill="#91908F" transform="translate(0,0)"/>
<path d="" fill="#8F908E" transform="translate(0,0)"/>
<path d="" fill="#C7875D" transform="translate(0,0)"/>
<path d="" fill="#C8885D" transform="translate(0,0)"/>
<path d="" fill="#878B8A" transform="translate(0,0)"/>
<path d="" fill="#8B8E8C" transform="translate(0,0)"/>
<path d="" fill="#8F908F" transform="translate(0,0)"/>
<path d="" fill="#B18D75" transform="translate(0,0)"/>
<path d="" fill="#BD8A65" transform="translate(0,0)"/>
<path d="" fill="#92908D" transform="translate(0,0)"/>
<path d="" fill="#90918F" transform="translate(0,0)"/>
<path d="" fill="#90918E" transform="translate(0,0)"/>
<path d="" fill="#C78B5F" transform="translate(0,0)"/>
<path d="" fill="#C6875B" transform="translate(0,0)"/>
<path d="" fill="#898C8A" transform="translate(0,0)"/>
<path d="" fill="#989087" transform="translate(0,0)"/>
<path d="" fill="#898B89" transform="translate(0,0)"/>
<path d="" fill="#C48960" transform="translate(0,0)"/>
<path d="" fill="#898A88" transform="translate(0,0)"/>
<path d="" fill="#8B8C8B" transform="translate(0,0)"/>
<path d="" fill="#8B8C8B" transform="translate(0,0)"/>
<path d="" fill="#8F8E8C" transform="translate(0,0)"/>
<path d="" fill="#A98E76" transform="translate(0,0)"/>
<path d="" fill="#A38F7D" transform="translate(0,0)"/>
<path d="" fill="#C38861" transform="translate(0,0)"/>
<path d="" fill="#93908B" transform="translate(0,0)"/>
<path d="" fill="#898A8A" transform="translate(0,0)"/>
<path d="" fill="#898C88" transform="translate(0,0)"/>
<path d="" fill="#A78D7A" transform="translate(0,0)"/>
<path d="" fill="#9B8E85" transform="translate(0,0)"/>
<path d="" fill="#94908A" transform="translate(0,0)"/>
<path d="" fill="#A28E7F" transform="translate(0,0)"/>
<path d="" fill="#A58E7D" transform="translate(0,0)"/>
<path d="" fill="#8E8E8C" transform="translate(0,0)"/>
<path d="" fill="#978F87" transform="translate(0,0)"/>
<path d="" fill="#A88C78" transform="translate(0,0)"/>
<path d="" fill="#928F8A" transform="translate(0,0)"/>
<path d="" fill="#A88C78" transform="translate(0,0)"/>
<path d="" fill="#AB8C76" transform="translate(0,0)"/>
<path d="" fill="#9B8E83" transform="translate(0,0)"/>
<path d="" fill="#8A8D8B" transform="translate(0,0)"/>
<path d="" fill="#9B8D82" transform="translate(0,0)"/>
<path d="" fill="#958F89" transform="translate(0,0)"/>
<path d="" fill="#9D8E81" transform="translate(0,0)"/>
<path d="" fill="#8B8B8B" transform="translate(0,0)"/>
<path d="" fill="#A58C79" transform="translate(0,0)"/>
<path d="" fill="#A48C7B" transform="translate(0,0)"/>
<path d="" fill="#91908C" transform="translate(0,0)"/>
<path d="" fill="#8E8E8D" transform="translate(0,0)"/>
<path d="" fill="#958E89" transform="translate(0,0)"/>
<path d="" fill="#968F88" transform="translate(0,0)"/>
<path d="" fill="#908F8C" transform="translate(0,0)"/>
<path d="" fill="#8D8F8D" transform="translate(0,0)"/>
<path d="" fill="#9C8E82" transform="translate(0,0)"/>
<path d="" fill="#9E8E81" transform="translate(0,0)"/>
<path d="" fill="#978E85" transform="translate(0,0)"/>
<path d="" fill="#8D8E8D" transform="translate(0,0)"/>
<path d="" fill="#8B8B8B" transform="translate(0,0)"/>
<path d="" fill="#908E8B" transform="translate(0,0)"/>
<path d="" fill="#9B8C81" transform="translate(0,0)"/>
<path d="" fill="#9B8F81" transform="translate(0,0)"/>
<path d="" fill="#998D83" transform="translate(0,0)"/>
<path d="" fill="#958E86" transform="translate(0,0)"/>
<path d="" fill="#8D8D8C" transform="translate(0,0)"/>
<path d="" fill="#8A8D8C" transform="translate(0,0)"/>
<path d="" fill="#8D8E8D" transform="translate(0,0)"/>
<path d="" fill="#898B8C" transform="translate(0,0)"/>
<path d="" fill="#988C83" transform="translate(0,0)"/>
<path d="" fill="#968E86" transform="translate(0,0)"/>
<path d="" fill="#918E89" transform="translate(0,0)"/>
<path d="" fill="#898988" transform="translate(0,0)"/>
<path d="" fill="#938D85" transform="translate(0,0)"/>
<path d="" fill="#988E84" transform="translate(0,0)"/>
<path d="" fill="#908E88" transform="translate(0,0)"/>
<path d="" fill="#958C87" transform="translate(0,0)"/>
<path d="" fill="#868687" transform="translate(0,0)"/>
<path d="" fill="#8B8C8C" transform="translate(0,0)"/>
<path d="" fill="#958C85" transform="translate(0,0)"/>
<path d="" fill="#8A8A8B" transform="translate(0,0)"/>
<path d="" fill="#8A8B8A" transform="translate(0,0)"/>
<path d="" fill="#918D88" transform="translate(0,0)"/>
<path d="" fill="#918C87" transform="translate(0,0)"/>
<path d="" fill="#948C87" transform="translate(0,0)"/>
<path d="" fill="#8E8E88" transform="translate(0,0)"/>
<path d="" fill="#928C86" transform="translate(0,0)"/>
<path d="" fill="#908D8B" transform="translate(0,0)"/>
<path d="" fill="#8D8D8B" transform="translate(0,0)"/>
<path d="" fill="#868789" transform="translate(0,0)"/>
<path d="" fill="#928B87" transform="translate(0,0)"/>
<path d="" fill="#918C88" transform="translate(0,0)"/>
<path d="" fill="#8D8D8A" transform="translate(0,0)"/>
<path d="" fill="#8B8C8C" transform="translate(0,0)"/>
<path d="" fill="#888B89" transform="translate(0,0)"/>
<path d="" fill="#908B87" transform="translate(0,0)"/>
<path d="" fill="#868989" transform="translate(0,0)"/>
<path d="" fill="#8C8C8B" transform="translate(0,0)"/>
<path d="" fill="#878988" transform="translate(0,0)"/>
<path d="" fill="#898B8A" transform="translate(0,0)"/>
<path d="" fill="#8E8C88" transform="translate(0,0)"/>
<path d="" fill="#8C8E8A" transform="translate(0,0)"/>
<path d="" fill="#8D8D8B" transform="translate(0,0)"/>
<path d="" fill="#828483" transform="translate(0,0)"/>
<path d="" fill="#8C8B8A" transform="translate(0,0)"/>
<path d="" fill="#8D8C8B" transform="translate(0,0)"/>
<path d="" fill="#8A8C8B" transform="translate(0,0)"/>
<path d="" fill="#878787" transform="translate(0,0)"/>
<path d="" fill="#8A8B8C" transform="translate(0,0)"/>
<path d="" fill="#868888" transform="translate(0,0)"/>
<path d="" fill="#898A89" transform="translate(0,0)"/>
<path d="" fill="#8C8B87" transform="translate(0,0)"/>
<path d="" fill="#8B8C8B" transform="translate(0,0)"/>
<path d="" fill="#828484" transform="translate(0,0)"/>
<path d="" fill="#848485" transform="translate(0,0)"/>
<path d="" fill="#898A89" transform="translate(0,0)"/>
<path d="" fill="#8A8A8A" transform="translate(0,0)"/>
<path d="" fill="#848585" transform="translate(0,0)"/>
<path d="" fill="#848585" transform="translate(0,0)"/>
<path d="" fill="#878788" transform="translate(0,0)"/>
<path d="" fill="#878989" transform="translate(0,0)"/>
<path d="" fill="#8B8988" transform="translate(0,0)"/>
<path d="" fill="#8B8A8B" transform="translate(0,0)"/>
<path d="" fill="#888A89" transform="translate(0,0)"/>
<path d="" fill="#818080" transform="translate(0,0)"/>
<path d="" fill="#868A87" transform="translate(0,0)"/>
<path d="" fill="#898A88" transform="translate(0,0)"/>
<path d="" fill="#898988" transform="translate(0,0)"/>
<path d="" fill="#898B89" transform="translate(0,0)"/>
<path d="" fill="#89898A" transform="translate(0,0)"/>
<path d="" fill="#858586" transform="translate(0,0)"/>
<path d="" fill="#888B8A" transform="translate(0,0)"/>
<path d="" fill="#878889" transform="translate(0,0)"/>
<path d="" fill="#838283" transform="translate(0,0)"/>
<path d="" fill="#838484" transform="translate(0,0)"/>
<path d="" fill="#868788" transform="translate(0,0)"/>
<path d="" fill="#8A898A" transform="translate(0,0)"/>
<path d="" fill="#898A89" transform="translate(0,0)"/>
<path d="" fill="#858688" transform="translate(0,0)"/>
<path d="" fill="#878789" transform="translate(0,0)"/>
<path d="" fill="#898988" transform="translate(0,0)"/>
<path d="" fill="#878889" transform="translate(0,0)"/>
<path d="" fill="#8A8A8B" transform="translate(0,0)"/>
<path d="" fill="#898A8A" transform="translate(0,0)"/>
<path d="" fill="#838483" transform="translate(0,0)"/>
<path d="" fill="#818283" transform="translate(0,0)"/>
<path d="" fill="#888989" transform="translate(0,0)"/>
<path d="" fill="#898A8A" transform="translate(0,0)"/>
<path d="" fill="#828483" transform="translate(0,0)"/>
<path d="" fill="#87888A" transform="translate(0,0)"/>
<path d="" fill="#858586" transform="translate(0,0)"/>
<path d="" fill="#858786" transform="translate(0,0)"/>
<path d="" fill="#858886" transform="translate(0,0)"/>
<path d="" fill="#888988" transform="translate(0,0)"/>
<path d="" fill="#888987" transform="translate(0,0)"/>
<path d="" fill="#89898A" transform="translate(0,0)"/>
<path d="" fill="#888989" transform="translate(0,0)"/>
<path d="" fill="#868988" transform="translate(0,0)"/>
<path d="" fill="#868887" transform="translate(0,0)"/>
<path d="" fill="#878989" transform="translate(0,0)"/>
<path d="" fill="#8A8B8A" transform="translate(0,0)"/>
<path d="" fill="#878989" transform="translate(0,0)"/>
</svg>
